<?xml version="1.0" encoding="UTF-8"?>
<svg width="262px" height="48px" viewBox="0 0 262 48" version="1.1" xmlns="http://www.w3.org/2000/svg" xmlns:xlink="http://www.w3.org/1999/xlink">
    <title>Group 3</title>
    <g id="Page-1" stroke="none" stroke-width="1" fill="none" fill-rule="evenodd">
        <g id="Group-3" fill-rule="nonzero">
            <g id="Group">
                <path d="M42.6,48 L5.4,48 C2.4,48 0,45.6 0,42.6 L0,5.4 C0,2.4 2.4,0 5.4,0 L42.7,0 C45.6,0 48,2.4 48,5.4 L48,42.7 C48,45.6 45.6,48 42.6,48 Z" id="Path" fill="#E7EBF6"></path>
                <path d="M34.6,11.8 L13.3,16.6 L13.3,37.4 C13.3,38 13.5,38.5 13.8,39 C14.4,39.8 15.7,40.4 17.3,40.4 C18.4,40.4 19.7,40.1 21,39.4 C24.2,37.8 34.3,32.8 34.3,32.8 C34.5,32.8 34.6,32.6 34.6,32.5 C34.6,32.6 34.6,11.8 34.6,11.8 Z M29.3,8.5 L27.7,9 L29.3,10.6 L29.3,8.5 Z" id="Shape" fill="#2845AE"></path>
                <polygon id="Path" fill="#2845AE" points="29.3 8 29.3 10.4 27.2 9"></polygon>
                <path d="M28,8.8 L27.8,8.8 L15.8,14.6 C13.6,15.7 13.6,17.3 14.2,18.3 C15.2,19.6 17.9,20.1 20.6,18.6 C23.8,17 33.2,12.7 33.2,12.7 C33.4,12.7 33.4,12.5 33.2,12.5 C33.3,12.5 28,8.8 28,8.8 Z" id="Path" fill="#5493F7"></path>
                <path d="M17.4,19.8 C15.8,19.8 14.5,19.3 13.9,18.4 C13.4,17.8 13.3,17 13.4,16.2 C13.6,15.6 14,14.6 15.6,14 L28.7,7.6 C28.9,7.4 29.2,7.6 29.3,7.8 C29.5,8 29.3,8.3 29.1,8.4 L16,14.8 C15,15.3 14.4,15.8 14.2,16.6 C14,17.1 14.2,17.7 14.5,18 C15.3,19.1 17.9,19.4 20.6,18.2 C23.8,16.6 33.9,11.6 33.9,11.6 C34.1,11.4 34.4,11.6 34.5,11.8 C34.6,12 34.5,12.3 34.3,12.4 C34.1,12.4 24.2,17.5 21,19 C19.7,19.5 18.6,19.8 17.4,19.8 Z" id="Path" fill="#2845AE"></path>
                <polygon id="Path" fill="#5493F7" points="24.2 21 30.3 17.9 30.7 18.8 24.6 21.9"></polygon>
                <path d="M30.1,15.4 L34.1,15.4 L34.1,21 L30.1,21 L30.1,15.4 Z M21,17.9 L25,17.9 L25,23.5 L21,23.5 L21,17.9 Z" id="Shape" fill="#2845AE"></path>
                <path d="M21.6,16.6 L22.1,16.9 C22.4,17.1 22.6,17.4 22.6,17.7 L22.6,27 C22.6,27 22.4,27.2 22.4,27 L21.4,26.2 L21.2,26.2 L20.2,28 L20,28 L20,19 C20,18.7 19.8,18.4 19.7,18.2 L19.1,17.7 C19.2,17.8 21.6,16.6 21.6,16.6 Z" id="Path" fill="#5493F7"></path>
            </g>
            <g id="Group-2" transform="translate(54.507812, 14.515625)" fill="#2845AE">
                <g id="Terra" transform="translate(-0.000000, 0.000000)">
                    <polygon id="Path" points="15.0566406 3.08496094 9.39453125 3.08496094 9.39453125 18.484375 5.5859375 18.484375 5.5859375 3.08496094 7.10542736e-15 3.08496094 7.10542736e-15 0 15.0566406 0"></polygon>
                    <path d="M22.260528,18.7382812 C21.1941217,18.7382812 20.2398574,18.5647786 19.397735,18.2177734 C18.5556126,17.8707682 17.8404433,17.3968099 17.2522272,16.7958984 C16.664011,16.194987 16.2154433,15.4903971 15.9065241,14.6821289 C15.5976048,13.8738607 15.4431451,13.0084635 15.4431451,12.0859375 L15.4431451,11.5908203 C15.4431451,10.5498047 15.593373,9.59554036 15.8938287,8.72802734 C16.1942845,7.86051432 16.6216933,7.11360677 17.1760553,6.48730469 C17.7304173,5.8610026 18.4032688,5.37223307 19.19461,5.02099609 C19.9859511,4.66975911 20.8725071,4.49414062 21.854278,4.49414062 C22.8445123,4.49414062 23.7162571,4.6570638 24.4695123,4.98291016 C25.2227675,5.30875651 25.8554173,5.76578776 26.3674616,6.35400391 C26.8795058,6.94222005 27.264597,7.65104167 27.522735,8.48046875 C27.780873,9.30989583 27.909942,10.2324219 27.909942,11.2480469 L27.909942,12.8095703 L19.1628717,12.8095703 C19.2221165,13.258138 19.342722,13.664388 19.5246881,14.0283203 C19.7066543,14.3922526 19.9394017,14.7032878 20.2229303,14.9614258 C20.5064589,15.2195638 20.838653,15.4205729 21.2195123,15.5644531 C21.6003717,15.7083333 22.0277806,15.7802734 22.5017389,15.7802734 C23.1703587,15.7802734 23.7881972,15.6554362 24.3552545,15.4057617 C24.9223118,15.1560872 25.4089655,14.7688802 25.8152155,14.2441406 L27.6179498,16.2626953 C27.3978978,16.5758464 27.1228326,16.8805339 26.7927545,17.1767578 C26.4626764,17.4729818 26.0733535,17.7374674 25.6247858,17.9702148 C25.1762181,18.2029622 24.6705214,18.3891602 24.1076959,18.5288086 C23.5448704,18.668457 22.9291478,18.7382812 22.260528,18.7382812 Z M21.8415826,7.46484375 C21.4437962,7.46484375 21.0946751,7.53466797 20.7942194,7.67431641 C20.4937636,7.81396484 20.2356256,8.0086263 20.0198053,8.25830078 C19.803985,8.50797526 19.6283665,8.8063151 19.4929498,9.15332031 C19.3575332,9.50032552 19.2602024,9.88541667 19.2009576,10.3085938 L24.3044733,10.3085938 L24.3044733,10.0166016 C24.2960097,9.65266927 24.2431126,9.3141276 24.1457819,9.00097656 C24.0484511,8.68782552 23.9003392,8.41699219 23.7014459,8.18847656 C23.5025527,7.95996094 23.2486464,7.78222656 22.9397272,7.65527344 C22.6308079,7.52832031 22.2647597,7.46484375 21.8415826,7.46484375 Z" id="Shape"></path>
                    <path d="M37.7925403,8.18847656 C37.6063424,8.16308594 37.3884062,8.1398112 37.1387317,8.11865234 C36.8890572,8.09749349 36.6668893,8.08691406 36.4722278,8.08691406 C35.7528268,8.08691406 35.1709583,8.20751953 34.7266223,8.44873047 C34.2822864,8.68994141 33.9543241,9.0390625 33.7427356,9.49609375 L33.7427356,18.484375 L30.0737903,18.484375 L30.0737903,4.74804688 L33.5396106,4.74804688 L33.6411731,6.38574219 C33.9881783,5.79329427 34.4155872,5.32991536 34.9233997,4.99560547 C35.4312122,4.66129557 36.0236601,4.49414062 36.7007434,4.49414062 C36.8954049,4.49414062 37.1006458,4.51106771 37.3164661,4.54492188 C37.5322864,4.57877604 37.7079049,4.61686198 37.8433215,4.65917969 L37.7925403,8.18847656 Z" id="Path"></path>
                    <path d="M47.3577558,8.18847656 C47.1715578,8.16308594 46.9536216,8.1398112 46.7039472,8.11865234 C46.4542727,8.09749349 46.2321047,8.08691406 46.0374433,8.08691406 C45.3180422,8.08691406 44.7361737,8.20751953 44.2918378,8.44873047 C43.8475018,8.68994141 43.5195396,9.0390625 43.3079511,9.49609375 L43.3079511,18.484375 L39.6390058,18.484375 L39.6390058,4.74804688 L43.1048261,4.74804688 L43.2063886,6.38574219 C43.5533938,5.79329427 43.9808026,5.32991536 44.4886151,4.99560547 C44.9964276,4.66129557 45.5888755,4.49414062 46.2659589,4.49414062 C46.4606203,4.49414062 46.6658612,4.51106771 46.8816815,4.54492188 C47.0975018,4.57877604 47.2731203,4.61686198 47.408537,4.65917969 L47.3577558,8.18847656 Z" id="Path"></path>
                    <path d="M56.7833228,18.484375 C56.6140519,18.1542969 56.4913306,17.7438151 56.4151587,17.2529297 C56.0427629,17.6676432 55.5751522,18.0188802 55.0123267,18.3066406 C54.4495012,18.594401 53.7618384,18.7382812 52.9493384,18.7382812 C52.2891821,18.7382812 51.6734595,18.6367188 51.1021704,18.4335938 C50.5308814,18.2304688 50.0357642,17.9469401 49.6168189,17.5830078 C49.1978736,17.2190755 48.8699113,16.785319 48.6329321,16.2817383 C48.395953,15.7781576 48.2774634,15.2259115 48.2774634,14.625 C48.2774634,13.905599 48.4107642,13.2666016 48.6773657,12.7080078 C48.9439673,12.1494141 49.3438696,11.6754557 49.8770728,11.2861328 C50.4102759,10.8968099 51.072548,10.6005859 51.8638892,10.3974609 C52.6552303,10.1943359 53.5756405,10.0927734 54.6251196,10.0927734 L56.262815,10.0927734 L56.262815,9.30566406 C56.262815,8.67089844 56.0998918,8.16308594 55.7740454,7.78222656 C55.4481991,7.40136719 54.9340389,7.2109375 54.231565,7.2109375 C53.6137264,7.2109375 53.1291887,7.35904948 52.7779517,7.65527344 C52.4267147,7.9514974 52.2510962,8.3577474 52.2510962,8.87402344 L48.5821509,8.87402344 C48.5821509,8.28157552 48.7196834,7.71875 48.9947486,7.18554688 C49.2698137,6.65234375 49.6612525,6.18684896 50.169065,5.7890625 C50.6768775,5.39127604 51.2904842,5.07600911 52.0098853,4.84326172 C52.7292863,4.61051432 53.5333228,4.49414062 54.4219946,4.49414062 C55.2175676,4.49414062 55.9538957,4.59570312 56.630979,4.79882812 C57.3080624,5.00195312 57.8920467,5.30452474 58.3829321,5.70654297 C58.8738176,6.1085612 59.2567928,6.61214193 59.5318579,7.21728516 C59.806923,7.82242839 59.9444556,8.52701823 59.9444556,9.33105469 L59.9444556,15.1455078 C59.9444556,15.5348307 59.9571509,15.8839518 59.9825415,16.1928711 C60.0079321,16.5017904 60.0417863,16.7810872 60.084104,17.0307617 C60.1264217,17.2804362 60.1814348,17.5047201 60.2491431,17.7036133 C60.3168514,17.9025065 60.3972551,18.0908203 60.490354,18.2685547 L60.490354,18.484375 L56.7833228,18.484375 Z M53.7491431,15.9326172 C54.0622941,15.9326172 54.3521704,15.8945312 54.618772,15.8183594 C54.8853736,15.7421875 55.1244686,15.6427409 55.3360571,15.5200195 C55.5476457,15.3972982 55.7317277,15.2555339 55.8883032,15.0947266 C56.0448788,14.9339193 56.169716,14.7688802 56.262815,14.5996094 L56.262815,12.2382812 L54.7520728,12.2382812 C54.2696509,12.2382812 53.8507056,12.2911784 53.4952368,12.3969727 C53.1397681,12.5027669 52.8477759,12.6508789 52.6192603,12.8413086 C52.3907446,13.0317383 52.2214738,13.2560221 52.1114478,13.5141602 C52.0014217,13.7722982 51.9464087,14.0537109 51.9464087,14.3583984 C51.9464087,14.8154297 52.107216,15.1920573 52.4288306,15.4882812 C52.7504452,15.7845052 53.1905493,15.9326172 53.7491431,15.9326172 Z" id="Shape"></path>
                </g>
                <g id="Docs-Classic" transform="translate(71.472656, 0.484375)">
                    <path d="M0,18 L0,0.9375 L4.81640625,0.9375 C5.94140625,0.9375 6.96484375,1.125 7.88671875,1.5 C8.80859375,1.875 9.59960938,2.41015625 10.2597656,3.10546875 C10.9199219,3.80078125 11.4316406,4.64453125 11.7949219,5.63671875 C12.1582031,6.62890625 12.3398438,7.7421875 12.3398438,8.9765625 L12.3398438,9.984375 C12.3398438,11.21875 12.1582031,12.3320312 11.7949219,13.3242188 C11.4316406,14.3164062 10.9160156,15.1582031 10.2480469,15.8496094 C9.58007812,16.5410156 8.76953125,17.0722656 7.81640625,17.4433594 C6.86328125,17.8144531 5.796875,18 4.6171875,18 L0,18 Z M2.25,2.7890625 L2.25,16.1601562 L4.6171875,16.1601562 C5.5234375,16.1601562 6.3203125,16.0136719 7.0078125,15.7207031 C7.6953125,15.4277344 8.26953125,15.0117188 8.73046875,14.4726562 C9.19140625,13.9335938 9.53710938,13.2851562 9.76757812,12.5273438 C9.99804688,11.7695312 10.1132812,10.921875 10.1132812,9.984375 L10.1132812,8.94140625 C10.1132812,7.96484375 9.99609375,7.09570312 9.76171875,6.33398438 C9.52734375,5.57226562 9.18359375,4.92773438 8.73046875,4.40039062 C8.27734375,3.87304688 7.72265625,3.47265625 7.06640625,3.19921875 C6.41015625,2.92578125 5.66015625,2.7890625 4.81640625,2.7890625 L2.25,2.7890625 Z" id="Shape"></path>
                    <path d="M14.8997422,11.5429688 C14.8997422,10.6210938 15.0345078,9.76757812 15.304039,8.98242188 C15.5735703,8.19726562 15.9563828,7.515625 16.4524765,6.9375 C16.9485703,6.359375 17.5520859,5.90625 18.2630234,5.578125 C18.9739609,5.25 19.7708359,5.0859375 20.6536484,5.0859375 C21.5520859,5.0859375 22.3587265,5.25 23.0735703,5.578125 C23.788414,5.90625 24.3958359,6.359375 24.8958359,6.9375 C25.3958359,7.515625 25.7786484,8.19726562 26.0442734,8.98242188 C26.3098984,9.76757812 26.4427109,10.6210938 26.4427109,11.5429688 L26.4427109,11.8007812 C26.4427109,12.7226562 26.3098984,13.5761719 26.0442734,14.3613281 C25.7786484,15.1464844 25.3958359,15.8261719 24.8958359,16.4003906 C24.3958359,16.9746094 23.7903672,17.4238281 23.0794297,17.7480469 C22.3684922,18.0722656 21.5677109,18.234375 20.6770859,18.234375 C19.7864609,18.234375 18.9856797,18.0722656 18.2747422,17.7480469 C17.5638047,17.4238281 16.9583359,16.9746094 16.4583359,16.4003906 C15.9583359,15.8261719 15.5735703,15.1464844 15.304039,14.3613281 C15.0345078,13.5761719 14.8997422,12.7226562 14.8997422,11.8007812 L14.8997422,11.5429688 Z M17.0794297,11.8007812 C17.0794297,12.4335938 17.1536484,13.03125 17.3020859,13.59375 C17.4505234,14.15625 17.6751328,14.6503906 17.975914,15.0761719 C18.2766953,15.5019531 18.6516953,15.8398438 19.100914,16.0898438 C19.5501328,16.3398438 20.0755234,16.4648438 20.6770859,16.4648438 C21.2708359,16.4648438 21.7942734,16.3398438 22.2473984,16.0898438 C22.7005234,15.8398438 23.0755234,15.5019531 23.3723984,15.0761719 C23.6692734,14.6503906 23.8938828,14.15625 24.0462265,13.59375 C24.1985703,13.03125 24.2747422,12.4335938 24.2747422,11.8007812 L24.2747422,11.5429688 C24.2747422,10.9179688 24.1985703,10.3222656 24.0462265,9.75585938 C23.8938828,9.18945312 23.6673203,8.69335938 23.366539,8.26757812 C23.0657578,7.84179688 22.6888047,7.50195312 22.2356797,7.24804688 C21.7825547,6.99414062 21.2552109,6.8671875 20.6536484,6.8671875 C20.0598984,6.8671875 19.5403672,6.99414062 19.0950547,7.24804688 C18.6497422,7.50195312 18.2766953,7.84179688 17.975914,8.26757812 C17.6751328,8.69335938 17.4505234,9.18945312 17.3020859,9.75585938 C17.1536484,10.3222656 17.0794297,10.9179688 17.0794297,11.5429688 L17.0794297,11.8007812 Z" id="Shape"></path>
                    <path d="M34.3229218,16.4648438 C34.7057343,16.4648438 35.0729218,16.4023438 35.4244843,16.2773438 C35.7760468,16.1523438 36.0865937,15.9804688 36.3561249,15.7617188 C36.6256562,15.5429688 36.8444062,15.2832031 37.0123749,14.9824219 C37.1803437,14.6816406 37.2799531,14.3554688 37.3112031,14.0039062 L39.3619843,14.0039062 C39.3307343,14.5664062 39.1764374,15.1035156 38.8990937,15.6152344 C38.6217499,16.1269531 38.2565156,16.5761719 37.8033906,16.9628906 C37.3502656,17.3496094 36.8248749,17.6582031 36.2272187,17.8886719 C35.6295624,18.1191406 34.9947968,18.234375 34.3229218,18.234375 C33.3697968,18.234375 32.5397187,18.0644531 31.8326874,17.7246094 C31.1256562,17.3847656 30.5377656,16.9257812 30.0690156,16.3476562 C29.6002656,15.7695312 29.2506562,15.0976562 29.0201874,14.3320312 C28.7897187,13.5664062 28.6744843,12.7578125 28.6744843,11.90625 L28.6744843,11.4140625 C28.6744843,10.5625 28.7897187,9.75390625 29.0201874,8.98828125 C29.2506562,8.22265625 29.6002656,7.55078125 30.0690156,6.97265625 C30.5377656,6.39453125 31.1237031,5.93554688 31.8268281,5.59570312 C32.5299531,5.25585938 33.3580781,5.0859375 34.3112031,5.0859375 C35.0533906,5.0859375 35.7272187,5.203125 36.3326874,5.4375 C36.9381562,5.671875 37.4615937,5.99414062 37.9029999,6.40429688 C38.3444062,6.81445312 38.6901093,7.30078125 38.9401093,7.86328125 C39.1901093,8.42578125 39.3307343,9.03125 39.3619843,9.6796875 L37.3112031,9.6796875 C37.2799531,9.2890625 37.1881562,8.92382812 37.0358124,8.58398438 C36.8834687,8.24414062 36.6783906,7.94726562 36.4205781,7.69335938 C36.1627656,7.43945312 35.8561249,7.23828125 35.5006562,7.08984375 C35.1451874,6.94140625 34.7487031,6.8671875 34.3112031,6.8671875 C33.6393281,6.8671875 33.0826874,7 32.6412812,7.265625 C32.1998749,7.53125 31.8444062,7.88085938 31.5748749,8.31445312 C31.3053437,8.74804688 31.1158906,9.23632812 31.0065156,9.77929688 C30.8971406,10.3222656 30.8424531,10.8671875 30.8424531,11.4140625 L30.8424531,11.90625 C30.8424531,12.46875 30.8971406,13.0214844 31.0065156,13.5644531 C31.1158906,14.1074219 31.3033906,14.59375 31.5690156,15.0234375 C31.8346406,15.453125 32.1901093,15.8007812 32.6354218,16.0664062 C33.0807343,16.3320312 33.6432343,16.4648438 34.3229218,16.4648438 Z" id="Path"></path>
                    <path d="M49.2578202,14.6367188 C49.2578202,14.4023438 49.222664,14.1816406 49.1523515,13.9746094 C49.082039,13.7675781 48.9433671,13.5722656 48.7363358,13.3886719 C48.5293046,13.2050781 48.2343827,13.0351562 47.8515702,12.8789062 C47.4687577,12.7226562 46.9648515,12.578125 46.3398515,12.4453125 C45.6367265,12.296875 45.003914,12.1210938 44.441414,11.9179688 C43.878914,11.7148438 43.4003983,11.4707031 43.0058671,11.1855469 C42.6113358,10.9003906 42.3086015,10.5625 42.097664,10.171875 C41.8867265,9.78125 41.7812577,9.32421875 41.7812577,8.80078125 C41.7812577,8.30078125 41.8925858,7.82617188 42.1152421,7.37695312 C42.3378983,6.92773438 42.6523515,6.53320312 43.0586015,6.19335938 C43.4648515,5.85351562 43.957039,5.58398438 44.535164,5.38476562 C45.113289,5.18554688 45.7578202,5.0859375 46.4687577,5.0859375 C47.2265702,5.0859375 47.9043046,5.18945312 48.5019608,5.39648438 C49.0996171,5.60351562 49.6074296,5.88671875 50.0253983,6.24609375 C50.4433671,6.60546875 50.7617265,7.02539062 50.9804765,7.50585938 C51.1992265,7.98632812 51.3086015,8.5 51.3086015,9.046875 L49.128914,9.046875 C49.128914,8.7890625 49.0703202,8.52929688 48.9531327,8.26757812 C48.8359452,8.00585938 48.6640702,7.77148438 48.4375077,7.56445312 C48.2109452,7.35742188 47.9336015,7.18945312 47.6054765,7.06054688 C47.2773515,6.93164062 46.8984452,6.8671875 46.4687577,6.8671875 C46.0156327,6.8671875 45.6308671,6.91992188 45.3144608,7.02539062 C44.9980546,7.13085938 44.738289,7.27148438 44.535164,7.44726562 C44.332039,7.62304688 44.1836015,7.82226562 44.0898515,8.04492188 C43.9961015,8.26757812 43.9492265,8.49609375 43.9492265,8.73046875 C43.9492265,8.96484375 43.988289,9.17578125 44.066414,9.36328125 C44.144539,9.55078125 44.2929765,9.72070312 44.5117265,9.87304688 C44.7304765,10.0253906 45.0293046,10.1660156 45.4082108,10.2949219 C45.7871171,10.4238281 46.2773515,10.5546875 46.878914,10.6875 C47.6523515,10.8671875 48.3242265,11.0703125 48.894539,11.296875 C49.4648515,11.5234375 49.9375077,11.7871094 50.3125077,12.0878906 C50.6875077,12.3886719 50.9668046,12.734375 51.1503983,13.125 C51.3339921,13.515625 51.425789,13.96875 51.425789,14.484375 C51.425789,15.0390625 51.3105546,15.546875 51.0800858,16.0078125 C50.8496171,16.46875 50.519539,16.8632812 50.0898515,17.1914062 C49.660164,17.5195312 49.144539,17.7753906 48.5429765,17.9589844 C47.941414,18.1425781 47.2734452,18.234375 46.5390702,18.234375 C45.6953202,18.234375 44.9511796,18.1171875 44.3066483,17.8828125 C43.6621171,17.6484375 43.1211015,17.3378906 42.6836015,16.9511719 C42.2461015,16.5644531 41.9140702,16.1230469 41.6875077,15.6269531 C41.4609452,15.1308594 41.347664,14.6210938 41.347664,14.0976562 L43.5156327,14.0976562 C43.5390702,14.5429688 43.6464921,14.9160156 43.8378983,15.2167969 C44.0293046,15.5175781 44.269539,15.7617188 44.5586015,15.9492188 C44.847664,16.1367188 45.1640702,16.2695312 45.5078202,16.3476562 C45.8515702,16.4257812 46.1953202,16.4648438 46.5390702,16.4648438 C46.9843827,16.4648438 47.3750077,16.4179688 47.7109452,16.3242188 C48.0468827,16.2304688 48.3300858,16.1015625 48.5605546,15.9375 C48.7910233,15.7734375 48.9648515,15.5800781 49.082039,15.3574219 C49.1992265,15.1347656 49.2578202,14.8945312 49.2578202,14.6367188 Z" id="Path"></path>
                    <path d="M73.2330858,12.5859375 C73.1393358,13.390625 72.9420701,14.1386719 72.6412889,14.8300781 C72.3405076,15.5214844 71.924492,16.1191406 71.393242,16.6230469 C70.861992,17.1269531 70.2135545,17.5214844 69.4479295,17.8066406 C68.6823045,18.0917969 67.7877733,18.234375 66.7643358,18.234375 C65.7565233,18.234375 64.8424608,18.046875 64.0221483,17.671875 C63.2018358,17.296875 62.5006639,16.7636719 61.9186326,16.0722656 C61.3366014,15.3808594 60.8873826,14.5507812 60.5709764,13.5820312 C60.2545701,12.6132812 60.096367,11.53125 60.096367,10.3359375 L60.096367,8.625 C60.096367,7.4296875 60.2565233,6.34570312 60.5768358,5.37304688 C60.8971483,4.40039062 61.3541795,3.56835937 61.9479295,2.87695312 C62.5416795,2.18554688 63.2623826,1.65039062 64.1100389,1.27148438 C64.9576951,0.892578125 65.908867,0.703125 66.9635545,0.703125 C67.924492,0.703125 68.7760545,0.84375 69.518242,1.125 C70.2604295,1.40625 70.8912889,1.79882812 71.4108201,2.30273438 C71.9303514,2.80664062 72.3424608,3.40820312 72.6471483,4.10742188 C72.9518358,4.80664062 73.1471483,5.578125 73.2330858,6.421875 L70.971367,6.421875 C70.8854295,5.828125 70.752617,5.29296875 70.5729295,4.81640625 C70.393242,4.33984375 70.1451951,3.93359375 69.8287889,3.59765625 C69.5123826,3.26171875 69.1198045,3.00390625 68.6510545,2.82421875 C68.1823045,2.64453125 67.6198045,2.5546875 66.9635545,2.5546875 C66.205742,2.5546875 65.5397264,2.70117188 64.9655076,2.99414062 C64.3912889,3.28710938 63.9108201,3.69726562 63.5241014,4.22460938 C63.1373826,4.75195312 62.846367,5.38867188 62.6510545,6.13476562 C62.455742,6.88085937 62.3580858,7.703125 62.3580858,8.6015625 L62.3580858,10.3359375 C62.3580858,11.171875 62.4459764,11.9570312 62.6217576,12.6914062 C62.7975389,13.4257812 63.065117,14.0683594 63.424492,14.6191406 C63.783867,15.1699219 64.2408983,15.6035156 64.7955858,15.9199219 C65.3502733,16.2363281 66.0065233,16.3945312 66.7643358,16.3945312 C67.4830858,16.3945312 68.0885545,16.3085938 68.580742,16.1367188 C69.0729295,15.9648437 69.4811326,15.7167969 69.8053514,15.3925781 C70.1295701,15.0683594 70.3815233,14.6699219 70.5612108,14.1972656 C70.7408983,13.7246094 70.877617,13.1875 70.971367,12.5859375 L73.2330858,12.5859375 Z" id="Path"></path>
                    <polygon id="Path" points="78.3945467 18 76.2265779 18 76.2265779 0 78.3945467 0"></polygon>
                    <path d="M89.7669451,18 C89.6888201,17.84375 89.6263201,17.6464844 89.5794451,17.4082031 C89.5325701,17.1699219 89.4935076,16.921875 89.4622576,16.6640625 C89.2591326,16.875 89.030617,17.0761719 88.7767107,17.2675781 C88.5228045,17.4589844 88.2454607,17.6269531 87.9446795,17.7714844 C87.6438982,17.9160156 87.3177263,18.0292969 86.9661638,18.1113281 C86.6146013,18.1933594 86.2435076,18.234375 85.8528826,18.234375 C85.2044451,18.234375 84.6165545,18.1367188 84.0892107,17.9414062 C83.561867,17.7460938 83.1126482,17.4804688 82.7415545,17.1445312 C82.3704607,16.8085938 82.0833513,16.4121094 81.8802263,15.9550781 C81.6771013,15.4980469 81.5755388,15.0078125 81.5755388,14.484375 C81.5755388,13.8046875 81.7083513,13.2050781 81.9739763,12.6855469 C82.2396013,12.1660156 82.6204607,11.7304688 83.1165545,11.3789062 C83.6126482,11.0273438 84.2122576,10.7617188 84.9153826,10.5820312 C85.6185076,10.4023438 86.4036638,10.3125 87.2708513,10.3125 L89.4271013,10.3125 L89.4271013,9.31640625 C89.4271013,8.55859375 89.2005388,7.95507812 88.7474138,7.50585938 C88.2942888,7.05664062 87.6263201,6.83203125 86.7435076,6.83203125 C86.3372576,6.83203125 85.9661638,6.88671875 85.6302263,6.99609375 C85.2942888,7.10546875 85.0071795,7.25195312 84.7688982,7.43554688 C84.530617,7.61914062 84.3450701,7.83203125 84.2122576,8.07421875 C84.0794451,8.31640625 84.0130388,8.5703125 84.0130388,8.8359375 L81.8333513,8.8359375 C81.8333513,8.3828125 81.952492,7.93359375 82.1907732,7.48828125 C82.4290545,7.04296875 82.7669451,6.64257812 83.2044451,6.28710938 C83.6419451,5.93164062 84.171242,5.64257812 84.7923357,5.41992188 C85.4134295,5.19726562 86.1067888,5.0859375 86.8724138,5.0859375 C87.5599138,5.0859375 88.1946795,5.17382812 88.7767107,5.34960938 C89.358742,5.52539062 89.8567888,5.79101562 90.2708513,6.14648438 C90.6849138,6.50195312 91.0091326,6.9453125 91.2435076,7.4765625 C91.4778826,8.0078125 91.5950701,8.62890625 91.5950701,9.33984375 L91.5950701,15.234375 C91.5950701,15.6640625 91.6321795,16.1152344 91.7063982,16.5878906 C91.780617,17.0605469 91.8919451,17.46875 92.0403826,17.8125 L92.0403826,18 L89.7669451,18 Z M86.1692888,16.3476562 C86.5599138,16.3476562 86.9271013,16.2929688 87.2708513,16.1835938 C87.6146013,16.0742188 87.9271013,15.9316406 88.2083513,15.7558594 C88.4896013,15.5800781 88.733742,15.3789062 88.9407732,15.1523438 C89.1478045,14.9257812 89.3099138,14.6914062 89.4271013,14.4492188 L89.4271013,11.8476562 L87.6224138,11.8476562 C86.3802263,11.8476562 85.4231951,12.0410156 84.7513201,12.4277344 C84.0794451,12.8144531 83.7435076,13.3984375 83.7435076,14.1796875 C83.7435076,14.484375 83.7942888,14.7695312 83.8958513,15.0351562 C83.9974138,15.3007812 84.1517107,15.5292969 84.358742,15.7207031 C84.5657732,15.9121094 84.8196795,16.0644531 85.1204607,16.1777344 C85.421242,16.2910156 85.7708513,16.3476562 86.1692888,16.3476562 Z" id="Shape"></path>
                    <path d="M102.451843,14.6367188 C102.451843,14.4023438 102.416687,14.1816406 102.346375,13.9746094 C102.276062,13.7675781 102.13739,13.5722656 101.930359,13.3886719 C101.723328,13.2050781 101.428406,13.0351562 101.045593,12.8789062 C100.662781,12.7226562 100.158875,12.578125 99.5338747,12.4453125 C98.8307497,12.296875 98.1979372,12.1210938 97.6354372,11.9179688 C97.0729372,11.7148438 96.5944216,11.4707031 96.1998904,11.1855469 C95.8053591,10.9003906 95.5026247,10.5625 95.2916872,10.171875 C95.0807497,9.78125 94.975281,9.32421875 94.975281,8.80078125 C94.975281,8.30078125 95.0866091,7.82617188 95.3092654,7.37695312 C95.5319216,6.92773438 95.8463747,6.53320312 96.2526247,6.19335938 C96.6588747,5.85351562 97.1510622,5.58398438 97.7291872,5.38476562 C98.3073122,5.18554688 98.9518435,5.0859375 99.662781,5.0859375 C100.420593,5.0859375 101.098328,5.18945312 101.695984,5.39648438 C102.29364,5.60351562 102.801453,5.88671875 103.219422,6.24609375 C103.63739,6.60546875 103.95575,7.02539062 104.1745,7.50585938 C104.39325,7.98632812 104.502625,8.5 104.502625,9.046875 L102.322937,9.046875 C102.322937,8.7890625 102.264343,8.52929688 102.147156,8.26757812 C102.029968,8.00585938 101.858093,7.77148438 101.631531,7.56445312 C101.404968,7.35742188 101.127625,7.18945312 100.7995,7.06054688 C100.471375,6.93164062 100.092468,6.8671875 99.662781,6.8671875 C99.209656,6.8671875 98.8248904,6.91992188 98.5084841,7.02539062 C98.1920779,7.13085938 97.9323122,7.27148438 97.7291872,7.44726562 C97.5260622,7.62304688 97.3776247,7.82226562 97.2838747,8.04492188 C97.1901247,8.26757812 97.1432497,8.49609375 97.1432497,8.73046875 C97.1432497,8.96484375 97.1823122,9.17578125 97.2604372,9.36328125 C97.3385622,9.55078125 97.4869997,9.72070312 97.7057497,9.87304688 C97.9244997,10.0253906 98.2233279,10.1660156 98.6022341,10.2949219 C98.9811404,10.4238281 99.4713747,10.5546875 100.072937,10.6875 C100.846375,10.8671875 101.51825,11.0703125 102.088562,11.296875 C102.658875,11.5234375 103.131531,11.7871094 103.506531,12.0878906 C103.881531,12.3886719 104.160828,12.734375 104.344422,13.125 C104.528015,13.515625 104.619812,13.96875 104.619812,14.484375 C104.619812,15.0390625 104.504578,15.546875 104.274109,16.0078125 C104.04364,16.46875 103.713562,16.8632812 103.283875,17.1914062 C102.854187,17.5195312 102.338562,17.7753906 101.737,17.9589844 C101.135437,18.1425781 100.467468,18.234375 99.7330935,18.234375 C98.8893435,18.234375 98.1452029,18.1171875 97.5006716,17.8828125 C96.8561404,17.6484375 96.3151247,17.3378906 95.8776247,16.9511719 C95.4401247,16.5644531 95.1080935,16.1230469 94.881531,15.6269531 C94.6549685,15.1308594 94.5416872,14.6210938 94.5416872,14.0976562 L96.709656,14.0976562 C96.7330935,14.5429688 96.8405154,14.9160156 97.0319216,15.2167969 C97.2233279,15.5175781 97.4635622,15.7617188 97.7526247,15.9492188 C98.0416872,16.1367188 98.3580935,16.2695312 98.7018435,16.3476562 C99.0455935,16.4257812 99.3893435,16.4648438 99.7330935,16.4648438 C100.178406,16.4648438 100.569031,16.4179688 100.904968,16.3242188 C101.240906,16.2304688 101.524109,16.1015625 101.754578,15.9375 C101.985047,15.7734375 102.158875,15.5800781 102.276062,15.3574219 C102.39325,15.1347656 102.451843,14.8945312 102.451843,14.6367188 Z" id="Path"></path>
                    <path d="M114.902367,14.6367188 C114.902367,14.4023438 114.867211,14.1816406 114.796898,13.9746094 C114.726586,13.7675781 114.587914,13.5722656 114.380883,13.3886719 C114.173851,13.2050781 113.878929,13.0351562 113.496117,12.8789062 C113.113304,12.7226562 112.609398,12.578125 111.984398,12.4453125 C111.281273,12.296875 110.648461,12.1210938 110.085961,11.9179688 C109.523461,11.7148438 109.044945,11.4707031 108.650414,11.1855469 C108.255883,10.9003906 107.953148,10.5625 107.742211,10.171875 C107.531273,9.78125 107.425804,9.32421875 107.425804,8.80078125 C107.425804,8.30078125 107.537133,7.82617188 107.759789,7.37695312 C107.982445,6.92773438 108.296898,6.53320312 108.703148,6.19335938 C109.109398,5.85351562 109.601586,5.58398438 110.179711,5.38476562 C110.757836,5.18554688 111.402367,5.0859375 112.113304,5.0859375 C112.871117,5.0859375 113.548851,5.18945312 114.146508,5.39648438 C114.744164,5.60351562 115.251976,5.88671875 115.669945,6.24609375 C116.087914,6.60546875 116.406273,7.02539062 116.625023,7.50585938 C116.843773,7.98632812 116.953148,8.5 116.953148,9.046875 L114.773461,9.046875 C114.773461,8.7890625 114.714867,8.52929688 114.597679,8.26757812 C114.480492,8.00585938 114.308617,7.77148438 114.082054,7.56445312 C113.855492,7.35742188 113.578148,7.18945312 113.250023,7.06054688 C112.921898,6.93164062 112.542992,6.8671875 112.113304,6.8671875 C111.660179,6.8671875 111.275414,6.91992188 110.959008,7.02539062 C110.642601,7.13085938 110.382836,7.27148438 110.179711,7.44726562 C109.976586,7.62304688 109.828148,7.82226562 109.734398,8.04492188 C109.640648,8.26757812 109.593773,8.49609375 109.593773,8.73046875 C109.593773,8.96484375 109.632836,9.17578125 109.710961,9.36328125 C109.789086,9.55078125 109.937523,9.72070312 110.156273,9.87304688 C110.375023,10.0253906 110.673851,10.1660156 111.052758,10.2949219 C111.431664,10.4238281 111.921898,10.5546875 112.523461,10.6875 C113.296898,10.8671875 113.968773,11.0703125 114.539086,11.296875 C115.109398,11.5234375 115.582054,11.7871094 115.957054,12.0878906 C116.332054,12.3886719 116.611351,12.734375 116.794945,13.125 C116.978539,13.515625 117.070336,13.96875 117.070336,14.484375 C117.070336,15.0390625 116.955101,15.546875 116.724633,16.0078125 C116.494164,16.46875 116.164086,16.8632812 115.734398,17.1914062 C115.304711,17.5195312 114.789086,17.7753906 114.187523,17.9589844 C113.585961,18.1425781 112.917992,18.234375 112.183617,18.234375 C111.339867,18.234375 110.595726,18.1171875 109.951195,17.8828125 C109.306664,17.6484375 108.765648,17.3378906 108.328148,16.9511719 C107.890648,16.5644531 107.558617,16.1230469 107.332054,15.6269531 C107.105492,15.1308594 106.992211,14.6210938 106.992211,14.0976562 L109.160179,14.0976562 C109.183617,14.5429688 109.291039,14.9160156 109.482445,15.2167969 C109.673851,15.5175781 109.914086,15.7617188 110.203148,15.9492188 C110.492211,16.1367188 110.808617,16.2695312 111.152367,16.3476562 C111.496117,16.4257812 111.839867,16.4648438 112.183617,16.4648438 C112.628929,16.4648438 113.019554,16.4179688 113.355492,16.3242188 C113.691429,16.2304688 113.974633,16.1015625 114.205101,15.9375 C114.43557,15.7734375 114.609398,15.5800781 114.726586,15.3574219 C114.843773,15.1347656 114.902367,14.8945312 114.902367,14.6367188 Z" id="Path"></path>
                    <path d="M122.325547,18 L120.157578,18 L120.157578,5.3203125 L122.325547,5.3203125 L122.325547,18 Z M119.981797,1.95703125 C119.981797,1.60546875 120.089218,1.30859375 120.304062,1.06640625 C120.518906,0.82421875 120.837265,0.703125 121.25914,0.703125 C121.681015,0.703125 122.001328,0.82421875 122.220078,1.06640625 C122.438828,1.30859375 122.548203,1.60546875 122.548203,1.95703125 C122.548203,2.30859375 122.438828,2.6015625 122.220078,2.8359375 C122.001328,3.0703125 121.681015,3.1875 121.25914,3.1875 C120.837265,3.1875 120.518906,3.0703125 120.304062,2.8359375 C120.089218,2.6015625 119.981797,2.30859375 119.981797,1.95703125 Z" id="Shape"></path>
                    <path d="M130.955757,16.4648438 C131.33857,16.4648438 131.705757,16.4023438 132.05732,16.2773438 C132.408882,16.1523438 132.719429,15.9804688 132.988961,15.7617188 C133.258492,15.5429688 133.477242,15.2832031 133.645211,14.9824219 C133.813179,14.6816406 133.912789,14.3554688 133.944039,14.0039062 L135.99482,14.0039062 C135.96357,14.5664062 135.809273,15.1035156 135.531929,15.6152344 C135.254586,16.1269531 134.889351,16.5761719 134.436226,16.9628906 C133.983101,17.3496094 133.457711,17.6582031 132.860054,17.8886719 C132.262398,18.1191406 131.627632,18.234375 130.955757,18.234375 C130.002632,18.234375 129.172554,18.0644531 128.465523,17.7246094 C127.758492,17.3847656 127.170601,16.9257812 126.701851,16.3476562 C126.233101,15.7695312 125.883492,15.0976562 125.653023,14.3320312 C125.422554,13.5664062 125.30732,12.7578125 125.30732,11.90625 L125.30732,11.4140625 C125.30732,10.5625 125.422554,9.75390625 125.653023,8.98828125 C125.883492,8.22265625 126.233101,7.55078125 126.701851,6.97265625 C127.170601,6.39453125 127.756539,5.93554688 128.459664,5.59570312 C129.162789,5.25585938 129.990914,5.0859375 130.944039,5.0859375 C131.686226,5.0859375 132.360054,5.203125 132.965523,5.4375 C133.570992,5.671875 134.094429,5.99414062 134.535836,6.40429688 C134.977242,6.81445312 135.322945,7.30078125 135.572945,7.86328125 C135.822945,8.42578125 135.96357,9.03125 135.99482,9.6796875 L133.944039,9.6796875 C133.912789,9.2890625 133.820992,8.92382812 133.668648,8.58398438 C133.516304,8.24414062 133.311226,7.94726562 133.053414,7.69335938 C132.795601,7.43945312 132.488961,7.23828125 132.133492,7.08984375 C131.778023,6.94140625 131.381539,6.8671875 130.944039,6.8671875 C130.272164,6.8671875 129.715523,7 129.274117,7.265625 C128.832711,7.53125 128.477242,7.88085938 128.207711,8.31445312 C127.938179,8.74804688 127.748726,9.23632812 127.639351,9.77929688 C127.529976,10.3222656 127.475289,10.8671875 127.475289,11.4140625 L127.475289,11.90625 C127.475289,12.46875 127.529976,13.0214844 127.639351,13.5644531 C127.748726,14.1074219 127.936226,14.59375 128.201851,15.0234375 C128.467476,15.453125 128.822945,15.8007812 129.268257,16.0664062 C129.71357,16.3320312 130.27607,16.4648438 130.955757,16.4648438 Z" id="Path"></path>
                </g>
            </g>
        </g>
    </g>
</svg>